<?xml version="1.0" encoding="utf-8"?>
<!-- Generator: Adobe Illustrator 19.0.1, SVG Export Plug-In . SVG Version: 6.00 Build 0)  -->
<!DOCTYPE svg PUBLIC "-//W3C//DTD SVG 1.1//EN" "http://www.w3.org/Graphics/SVG/1.1/DTD/svg11.dtd">
<svg version="1.1" id="Ebene_1" xmlns="http://www.w3.org/2000/svg" xmlns:xlink="http://www.w3.org/1999/xlink" x="0px" y="0px"
	 viewBox="0 0 360 360" enable-background="new 0 0 360 360" xml:space="preserve">
<rect fill="#E3774C" width="360" height="360"/>
<g>
	<path fill="#FFFFFF" d="M223,197.1c-1.4-0.4-14-3.7-16.2-4.1c-1.3-0.2-2.7,0.2-3.6,1.1l-23.7,23.5L156,194.4
		c-1.1-1-2.6-1.5-4.1-1.1c-2.3,0.6-14.5,3.7-15,3.9c-5.7,1.5-9.7,6.7-9.7,12.7c0,0.1,0,0.3,0,0.4l5.3,55.5c0.2,2.1,1.9,3.6,4,3.6
		h86.9c2.1,0,3.8-1.6,4-3.6l5.3-55.5c0-0.1,0-0.3,0-0.4C232.8,203.9,228.8,198.7,223,197.1z M219.8,261.3h-79.6l-5-51.7
		c0.1-2.2,1.6-4.2,3.8-4.8c0.1,0,8.7-2.3,12.8-3.3l24.9,24.6c1.6,1.5,4.1,1.5,5.6,0l25-24.8c3.6,0.9,10.7,2.8,13.7,3.5
		c2.2,0.6,3.7,2.5,3.8,4.8L219.8,261.3z"/>
	<path fill="#FFFFFF" d="M180,196.4c17.8,0,32.3-17.6,32.3-39.1c0-9.1-2.6-17.5-6.9-24.2l3.7-14.9c1.2-4.8,2.2-8.8,2.5-10.1
		c0.2-0.4,0.2-0.8,0.2-1.2c0-0.2,0-0.4-0.1-0.6c-0.6-8.9-14-15.6-31.8-15.6c-18.1,0-31.8,7-31.8,16.2c0,0.2,0,0.5,0.1,0.7
		c0,0.2,2.4,9.6,4.6,18.2l1.8,7.2c-4.3,6.7-6.9,15-6.9,24.2C147.7,178.8,162.2,196.4,180,196.4z M180,188.4
		c-13.4,0-24.3-14-24.3-31.1c0-6.4,1.5-12.4,4.2-17.4c0.1,0,0.1,0,0.2-0.1c5.1-2.6,12.3-4,19.9-4c7.6,0,14.8,1.5,19.9,4
		c0.1,0,0.1,0,0.2,0.1c2.6,5,4.2,10.9,4.2,17.4C204.3,174.4,193.4,188.4,180,188.4z M154.5,107.8c-0.1-0.4-0.2-0.7-0.3-1.1
		c0-0.1,0-0.1,0-0.2c0.5-4.7,11.4-9.9,25.8-9.9c7.1,0,14,1.3,19,3.6c4.2,1.9,6.7,4.4,6.7,6.6h0c0,0,0,0,0,0
		c-0.6,1.9-1.4,4.9-2.6,9.8l-4,16.2c-5.5-2.1-12.1-3.2-19.2-3.2c-7.1,0-13.7,1.1-19.2,3.2L154.5,107.8z"/>
	<polygon fill="#FFFFFF" points="174.3,124.5 185.7,124.5 185.7,118.8 191.4,118.8 191.4,107.5 185.7,107.5 185.7,101.8 
		174.3,101.8 174.3,107.5 168.6,107.5 168.6,118.8 174.3,118.8 	"/>
</g>
</svg>
