<?xml version="1.0" encoding="utf-8"?>
<!-- Generator: Adobe Illustrator 19.0.1, SVG Export Plug-In . SVG Version: 6.00 Build 0)  -->
<!DOCTYPE svg PUBLIC "-//W3C//DTD SVG 1.1//EN" "http://www.w3.org/Graphics/SVG/1.1/DTD/svg11.dtd">
<svg version="1.1" id="Ebene_1" xmlns="http://www.w3.org/2000/svg" xmlns:xlink="http://www.w3.org/1999/xlink" x="0px" y="0px"
	 viewBox="0 0 360 360" enable-background="new 0 0 360 360" xml:space="preserve">
<rect fill="#E3774C" width="360" height="360"/>
<g>
	<path fill="#FFFFFF" d="M231.6,103.1h-20.2c-0.8,0-1.5-0.5-1.7-1.2l-1.2-3c-2.6-6.9-9.3-11.5-16.7-11.5h-23.6
		c-7.4,0-14.1,4.6-16.7,11.5l-1.2,3c-0.3,0.7-1,1.2-1.7,1.2h-20.2c-5.9,0-10.6,4.8-10.6,10.6v148.2c0,5.9,4.8,10.6,10.6,10.6h103.2
		c5.9,0,10.6-4.8,10.6-10.6V113.8C242.2,107.9,237.5,103.1,231.6,103.1z M234.2,261.9c0,1.5-1.2,2.6-2.6,2.6H128.4
		c-1.5,0-2.6-1.2-2.6-2.6V113.8c0-1.5,1.2-2.6,2.6-2.6h20.2c4.1,0,7.7-2.5,9.2-6.3l1.2-3c1.5-3.8,5.1-6.3,9.2-6.3h23.6
		c4.1,0,7.7,2.5,9.2,6.3l1.2,3c1.5,3.8,5.1,6.3,9.2,6.3h20.2c1.5,0,2.6,1.2,2.6,2.6V261.9z"/>
	<path fill="#FFFFFF" d="M147.1,161.6c-1.7,0-3,1.3-3,3s1.3,3,3,3h65.8c1.7,0,3-1.3,3-3s-1.3-3-3-3H147.1z"/>
	<path fill="#FFFFFF" d="M180.4,215.9h-33.3c-1.7,0-3,1.3-3,3s1.3,3,3,3h33.3c1.7,0,3-1.3,3-3S182.1,215.9,180.4,215.9z"/>
	<path fill="#FFFFFF" d="M212.9,179.8h-65.8c-1.7,0-3,1.3-3,3s1.3,3,3,3h65.8c1.7,0,3-1.3,3-3S214.6,179.8,212.9,179.8z"/>
	<path fill="#FFFFFF" d="M212.9,197.9h-65.8c-1.7,0-3,1.3-3,3s1.3,3,3,3h65.8c1.7,0,3-1.3,3-3S214.6,197.9,212.9,197.9z"/>
	<path fill="#FFFFFF" d="M204.3,119.8h-48.6c-3.5,0-6.4,2-7.9,5h-13.9v130.4H226V124.7h-13.9C210.7,121.8,207.8,119.8,204.3,119.8z
		 M155.7,125.8h48.6c1.5,0,2.7,1.2,2.7,2.7s-1.2,2.7-2.7,2.7h-48.6c-1.5,0-2.7-1.2-2.7-2.7S154.2,125.8,155.7,125.8z M220,249.1
		h-80.1V130.7h7.4c1,3.7,4.4,6.5,8.4,6.5h48.6c4,0,7.4-2.8,8.4-6.5h7.4V249.1z"/>
	<circle fill="#FFFFFF" cx="180" cy="107.8" r="5.3"/>
</g>
</svg>
