<?xml version="1.0" encoding="utf-8"?>
<!-- Generator: Adobe Illustrator 19.0.1, SVG Export Plug-In . SVG Version: 6.00 Build 0)  -->
<!DOCTYPE svg PUBLIC "-//W3C//DTD SVG 1.1//EN" "http://www.w3.org/Graphics/SVG/1.1/DTD/svg11.dtd">
<svg version="1.1" id="Ebene_1" xmlns="http://www.w3.org/2000/svg" xmlns:xlink="http://www.w3.org/1999/xlink" x="0px" y="0px"
	 viewBox="0 0 360 360" enable-background="new 0 0 360 360" xml:space="preserve">
<rect fill="#E3774C" width="360" height="360"/>
<g>
	<g>
		<path fill="#FFFFFF" d="M183.7,243c-5.3,0-9.6,4.3-9.6,9.6s4.3,9.6,9.6,9.6s9.6-4.3,9.6-9.6S189.1,243,183.7,243z"/>
		<path fill="#FFFFFF" d="M195.9,221.9c-5.3,0-9.6,4.3-9.6,9.6s4.3,9.6,9.6,9.6s9.6-4.3,9.6-9.6S201.2,221.9,195.9,221.9z"/>
		<path fill="#FFFFFF" d="M183.7,220.1c5.3,0,9.6-4.3,9.6-9.6s-4.3-9.6-9.6-9.6s-9.6,4.3-9.6,9.6S178.4,220.1,183.7,220.1z"/>
	</g>
	<g>
		<path fill="#FFFFFF" d="M174,188.9l-58.2-10.3c-16.7-2.9-27.8-18.9-24.9-35.6c2.6-14.7,15.3-25.4,30.2-25.4c1.8,0,3.6,0.2,5.4,0.5
			l58.2,10.3L174,188.9z M121,125.7c-11,0-20.4,7.9-22.3,18.8c-2.2,12.3,6.1,24.1,18.4,26.3l50.3,8.9l7.9-44.7l-50.3-8.9
			C123.7,125.8,122.4,125.7,121,125.7z"/>
		<path fill="#FFFFFF" d="M269.2,143.1c-2.6-14.7-15.3-25.4-30.2-25.4c-1.8,0-3.6,0.2-5.4,0.5l-58.2,10.3l10.7,60.5l58.2-10.3
			c8.1-1.4,15.1-5.9,19.8-12.6C268.8,159.3,270.6,151.2,269.2,143.1z M238.8,135.2l-52.9,9.3l-1.3-7.4l52.9-9.3c2-0.4,4,1,4.3,3
			C242.2,132.9,240.9,134.8,238.8,135.2z M255.1,135.7c-0.2,1.9-1.9,3.3-3.7,3.3c-0.2,0-0.3,0-0.5,0l-0.5-0.1
			c-2-0.3-3.5-2.1-3.2-4.2c0.3-2,2.1-3.5,4.2-3.2l0.5,0.1C253.9,131.8,255.3,133.7,255.1,135.7z"/>
	</g>
</g>
</svg>
