<?xml version="1.0" encoding="utf-8"?>
<!-- Generator: Adobe Illustrator 19.0.1, SVG Export Plug-In . SVG Version: 6.00 Build 0)  -->
<!DOCTYPE svg PUBLIC "-//W3C//DTD SVG 1.1//EN" "http://www.w3.org/Graphics/SVG/1.1/DTD/svg11.dtd">
<svg version="1.1" id="Ebene_1" xmlns="http://www.w3.org/2000/svg" xmlns:xlink="http://www.w3.org/1999/xlink" x="0px" y="0px"
	 viewBox="0 0 52 52" enable-background="new 0 0 52 52" xml:space="preserve">
<g>
	<path fill="#2F394B" d="M20.8,8.9C20,8.3,19.1,8,18,8c-1.4,0-2.6,0.6-3.5,1.7c-0.8,1.1-1.2,2.4-1.1,3.8c0,1.9,0.5,3.8,1.6,5.8
		c0.5,0.9,1.2,1.7,2.1,2.4c0.8,0.7,1.8,1,2.9,1c1.4-0.1,2.5-0.5,3.4-1.5c0.4-0.7,0.7-1.3,0.8-2c0.1-0.7,0.1-1.3,0.1-1.7
		c0-2-0.5-4.1-1.6-6.2C22.3,10.4,21.6,9.6,20.8,8.9z"/>
	<path fill="#2F394B" d="M20.5,31.1c-0.3,0-0.9,0-2,0.1c-1.1,0.2-2.2,0.4-3.3,0.7c-0.3,0.1-0.6,0.3-1.1,0.5c-0.5,0.2-1,0.5-1.5,0.9
		c-0.5,0.4-0.9,0.9-1.2,1.6c-0.4,0.7-0.6,1.4-0.6,2.4c0,1.8,0.8,3.3,2.5,4.5c1.6,1.2,3.7,1.8,6.4,1.8c2.4,0,4.3-0.6,5.6-1.6
		c1.3-1,1.9-2.4,1.9-4c0-1.3-0.4-2.5-1.3-3.4c-0.9-0.9-2.3-2.1-4.3-3.4C21.3,31.1,20.9,31.1,20.5,31.1z"/>
	<path fill="#2F394B" d="M0,0v52h52V0H0z M26.3,9c0.4,0.4,0.8,0.9,1.1,1.5c0.4,0.6,0.7,1.2,1,2c0.2,0.8,0.3,1.6,0.3,2.7
		c0,1.9-0.4,3.3-1.2,4.4c-0.4,0.5-0.8,1-1.2,1.5c-0.5,0.5-1,0.9-1.5,1.4c-0.3,0.3-0.6,0.7-0.9,1.1c-0.3,0.4-0.5,0.9-0.5,1.5
		c0,0.5,0.2,1,0.5,1.3c0.3,0.3,0.5,0.6,0.8,0.9l1.8,1.4c1.1,0.9,2,1.9,2.9,3c0.8,1.1,1.2,2.5,1.2,4.3c0,2.5-1.1,4.7-3.3,6.7
		c-2.3,2-5.6,3-9.9,3.1c-3.6,0-6.3-0.8-8.1-2.3c-1.8-1.4-2.7-3.1-2.7-5.1c0-1,0.3-2,0.9-3.2c0.6-1.2,1.6-2.2,3.1-3.1
		c1.7-1,3.4-1.6,5.3-1.9c1.8-0.3,3.3-0.4,4.6-0.5c-0.4-0.5-0.7-1-1-1.6c-0.3-0.5-0.5-1.2-0.5-2c0-0.5,0.1-0.8,0.2-1.1
		c0.1-0.3,0.2-0.6,0.3-0.9c-0.6,0.1-1.1,0.1-1.7,0.1c-2.8,0-4.9-0.9-6.3-2.6C9.7,20,9,18.2,9,16.1c0-2.5,1.1-4.9,3.2-6.9
		c1.5-1.2,3-2,4.6-2.4c1.6-0.3,3-0.5,4.4-0.5h10.4l-3.2,1.9h-3.2C25.5,8.4,25.9,8.6,26.3,9z M45.6,14.6h-5.4V20h-2.6v-5.4h-5.4v-2.6
		h5.4V6.5h2.6v5.4h5.4V14.6z"/>
</g>
</svg>
