<?xml version="1.0" encoding="utf-8"?>
<!-- Generator: Adobe Illustrator 19.0.1, SVG Export Plug-In . SVG Version: 6.00 Build 0)  -->
<!DOCTYPE svg PUBLIC "-//W3C//DTD SVG 1.1//EN" "http://www.w3.org/Graphics/SVG/1.1/DTD/svg11.dtd">
<svg version="1.1" id="Ebene_1" xmlns="http://www.w3.org/2000/svg" xmlns:xlink="http://www.w3.org/1999/xlink" x="0px" y="0px"
	 viewBox="0 0 52 52" enable-background="new 0 0 52 52" xml:space="preserve">
<path fill="#2F394B" d="M0,0v52h52V0H0z M16.2,43.6H8.9V20.1h7.3V43.6z M12.6,16.9c-2.4,0-4.3-1.9-4.3-4.2c0-2.3,1.9-4.2,4.3-4.2
	c2.3,0,4.2,1.9,4.2,4.2C16.8,14.9,14.9,16.9,12.6,16.9z M43.7,43.6h-7.3V32.2c0-2.7-0.1-6.3-3.8-6.3c-3.8,0-4.4,3-4.4,6.1v11.7h-7.3
	V20.1h7v3.2H28c1-1.9,3.4-3.8,6.9-3.8c7.4,0,8.8,4.9,8.8,11.2V43.6z"/>
</svg>
