<?xml version="1.0" encoding="utf-8"?>
<!-- Generator: Adobe Illustrator 19.1.0, SVG Export Plug-In . SVG Version: 6.00 Build 0)  -->
<!DOCTYPE svg PUBLIC "-//W3C//DTD SVG 1.1//EN" "http://www.w3.org/Graphics/SVG/1.1/DTD/svg11.dtd">
<svg version="1.1" id="Ebene_1" xmlns="http://www.w3.org/2000/svg" xmlns:xlink="http://www.w3.org/1999/xlink" x="0px" y="0px"
	 viewBox="-1483 585 32 32" style="enable-background:new -1483 585 32 32;" xml:space="preserve">
<style type="text/css">
	.st0{fill:#2F394B;}
	.st1{fill:#F6C20B;}
	.st2{clip-path:url(#SVGID_2_);fill:#F6C20B;}
	.st3{clip-path:url(#SVGID_2_);fill:#FFFFFF;}
</style>
<g>
	<rect x="-1483" y="585" class="st0" width="32" height="32"/>
</g>
<g>
	<path class="st1" d="M-1482.2,585.8h30.4v30.4h-30.4V585.8z M-1483,617h32v-32h-32V617z"/>
	<g>
		<defs>
			<rect id="SVGID_1_" x="-1483" y="585" width="32" height="32"/>
		</defs>
		<clipPath id="SVGID_2_">
			<use xlink:href="#SVGID_1_"  style="overflow:visible;"/>
		</clipPath>
		<path class="st2" d="M-1479.7,604.9h3.6c0.3,0,0.5-0.2,0.5-0.5v-0.3c0-0.3-0.2-0.5-0.5-0.5h-2.7v-6.1c0-0.3-0.2-0.5-0.5-0.5h-0.4
			c-0.3,0-0.5,0.2-0.5,0.5v6.9C-1480.2,604.7-1479.9,604.9-1479.7,604.9"/>
		<path class="st2" d="M-1472.4,605c1.8,0,3-1.3,3-3v-4.4c0-0.3-0.2-0.5-0.5-0.5h-0.4c-0.3,0-0.5,0.2-0.5,0.5v4.4
			c0,1.1-0.7,1.8-1.7,1.8c-1,0-1.7-0.7-1.7-1.8v-4.4c0-0.3-0.2-0.5-0.5-0.5h-0.4c-0.3,0-0.5,0.2-0.5,0.5v4.4
			C-1475.4,603.7-1474.1,605-1472.4,605"/>
		<path class="st2" d="M-1465.6,599.4c0.2,0.4,0.4,0.8,0.5,1.2c0.2,0.4,0.4,0.9,0.6,1.3h-2.2L-1465.6,599.4z M-1468.8,604.9h0.4
			c0.2,0,0.4-0.1,0.4-0.3l0.7-1.5h3.3l0.7,1.5c0.1,0.1,0.2,0.3,0.4,0.3h0.4c0.2,0,0.3-0.1,0.4-0.2c0.1-0.1,0.1-0.3,0-0.5l-3.1-7
			c0,0,0,0,0,0c-0.1-0.2-0.2-0.3-0.4-0.3h-0.1c-0.2,0-0.3,0.1-0.4,0.3l-3.2,7c-0.1,0.2-0.1,0.3,0,0.5
			C-1469.1,604.8-1469,604.9-1468.8,604.9"/>
		<path class="st2" d="M-1479.7,614.2h3.6c0.3,0,0.5-0.2,0.5-0.5v-0.3c0-0.3-0.2-0.5-0.5-0.5h-2.7v-6.1c0-0.3-0.2-0.5-0.5-0.5h-0.4
			c-0.3,0-0.5,0.2-0.5,0.5v6.9C-1480.2,613.9-1479.9,614.2-1479.7,614.2"/>
		<path class="st2" d="M-1472.6,611.1l1.1-2.5c0.2,0.4,0.4,0.8,0.5,1.2c0.2,0.4,0.4,0.9,0.6,1.3H-1472.6z M-1471,606.5
			C-1471,606.5-1471,606.5-1471,606.5c-0.1-0.2-0.3-0.3-0.4-0.3h-0.1c-0.2,0-0.3,0.1-0.4,0.3l-3.2,7c-0.1,0.2-0.1,0.3,0,0.5
			c0.1,0.1,0.2,0.2,0.4,0.2h0.4c0.2,0,0.4-0.1,0.4-0.3l0.7-1.5h3.3l0.7,1.5c0.1,0.1,0.2,0.3,0.4,0.3h0.4c0.2,0,0.3-0.1,0.4-0.2
			c0.1-0.1,0.1-0.3,0-0.5L-1471,606.5z"/>
		<path class="st2" d="M-1464.5,612.9h-1.5v-2h1.5c0.6,0,1.1,0.4,1.1,1C-1463.4,612.5-1463.8,612.9-1464.5,612.9 M-1466,607.6h1.3
			c0.7,0,1.1,0.4,1.1,1c0,0.6-0.4,1-1.1,1h-1.3V607.6z M-1462.9,610.1c0.5-0.4,0.8-1,0.8-1.6c0-1.3-1-2.2-2.4-2.2h-2.3
			c-0.3,0-0.5,0.2-0.5,0.5v6.9c0,0.3,0.2,0.5,0.5,0.5h2.4c1.4,0,2.5-1,2.5-2.3C-1461.9,611-1462.5,610.4-1462.9,610.1"/>
		<path class="st3" d="M-1456.9,593.9c1.7,0,3-1.4,3-3c0-1.7-1.4-3-3-3c-0.1,0-0.2,0-0.4,0c1.2,0.2,2.1,1.1,2.1,2.4
			c0,1.3-1.1,2.4-2.4,2.4c-1.2,0-2.2-0.9-2.4-2.1c0,0.1,0,0.2,0,0.4C-1459.9,592.5-1458.5,593.9-1456.9,593.9"/>
	</g>
</g>
</svg>
