<?xml version="1.0" encoding="utf-8"?>
<!-- Generator: Adobe Illustrator 19.0.1, SVG Export Plug-In . SVG Version: 6.00 Build 0)  -->
<!DOCTYPE svg PUBLIC "-//W3C//DTD SVG 1.1//EN" "http://www.w3.org/Graphics/SVG/1.1/DTD/svg11.dtd">
<svg version="1.1" id="Ebene_1" xmlns="http://www.w3.org/2000/svg" xmlns:xlink="http://www.w3.org/1999/xlink" x="0px" y="0px"
	 viewBox="-159 209 32 32" style="enable-background:new -159 209 32 32;" xml:space="preserve">
<style type="text/css">
	.st0{fill:#2F394B;}
	.st1{fill:#E3774C;}
	.st2{clip-path:url(#SVGID_2_);fill:#FFFFFF;}
	.st3{clip-path:url(#SVGID_4_);fill:#E3774C;}
	.st4{clip-path:url(#SVGID_6_);fill:#E3774C;}
	.st5{clip-path:url(#SVGID_8_);fill:#E3774C;}
	.st6{clip-path:url(#SVGID_10_);fill:#E3774C;}
	.st7{clip-path:url(#SVGID_12_);fill:#E3774C;}
	.st8{clip-path:url(#SVGID_14_);fill:#E3774C;}
	.st9{clip-path:url(#SVGID_16_);fill:#E3774C;}
</style>
<rect x="-159" y="209" class="st0" width="32" height="32"/>
<g>
	<path class="st1" d="M-158.2,209.8h30.4v30.4h-30.4V209.8z M-159,241h32v-32h-32V241z"/>
	<g>
		<g>
			<defs>
				<rect id="SVGID_1_" x="-159" y="209" width="32" height="32"/>
			</defs>
			<clipPath id="SVGID_2_">
				<use xlink:href="#SVGID_1_"  style="overflow:visible;"/>
			</clipPath>
			<path class="st2" d="M-132.9,217.9c1.7,0,3-1.4,3-3c0-1.7-1.4-3-3-3c-0.1,0-0.2,0-0.4,0c1.2,0.1,2.1,1.1,2.1,2.3
				c0,1.3-1.1,2.4-2.4,2.4c-1.2,0-2.2-0.9-2.3-2.1c0,0.1,0,0.2,0,0.4C-135.9,216.5-134.5,217.9-132.9,217.9"/>
		</g>
		<g>
			<defs>
				<rect id="SVGID_3_" x="-159" y="209" width="32" height="32"/>
			</defs>
			<clipPath id="SVGID_4_">
				<use xlink:href="#SVGID_3_"  style="overflow:visible;"/>
			</clipPath>
			<path class="st3" d="M-155.7,228.9h3.6c0.3,0,0.5-0.2,0.5-0.5v-0.3c0-0.3-0.2-0.5-0.5-0.5h-2.7v-6c0-0.3-0.2-0.5-0.5-0.5h-0.4
				c-0.3,0-0.5,0.2-0.5,0.5v6.9C-156.2,228.7-155.9,228.9-155.7,228.9"/>
		</g>
		<g>
			<defs>
				<rect id="SVGID_5_" x="-159" y="209" width="32" height="32"/>
			</defs>
			<clipPath id="SVGID_6_">
				<use xlink:href="#SVGID_5_"  style="overflow:visible;"/>
			</clipPath>
			<path class="st4" d="M-148.3,229c1.8,0,3.1-1.3,3.1-3v-4.4c0-0.3-0.2-0.5-0.5-0.5h-0.4c-0.3,0-0.5,0.2-0.5,0.5v4.4
				c0,1.1-0.6,1.7-1.7,1.7c-1,0-1.6-0.7-1.6-1.8v-4.3c0-0.3-0.2-0.5-0.5-0.5h-0.4c-0.3,0-0.5,0.2-0.5,0.5v4.4
				C-151.4,227.7-150.1,229-148.3,229"/>
		</g>
		<g>
			<defs>
				<rect id="SVGID_7_" x="-159" y="209" width="32" height="32"/>
			</defs>
			<clipPath id="SVGID_8_">
				<use xlink:href="#SVGID_7_"  style="overflow:visible;"/>
			</clipPath>
			<path class="st5" d="M-141.6,223.4c0.2,0.4,0.4,0.8,0.5,1.2c0.2,0.5,0.4,0.9,0.6,1.3h-2.2L-141.6,223.4z M-144.8,228.9h0.5
				c0.2,0,0.4-0.1,0.5-0.3l0.7-1.6h3.3l0.7,1.6c0,0.1,0.2,0.3,0.5,0.3h0.4c0.2,0,0.3-0.1,0.4-0.2c0.1-0.1,0.1-0.3,0-0.5l-3.1-7l0,0
				c-0.1-0.2-0.2-0.3-0.5-0.3h-0.1c-0.2,0-0.4,0.1-0.5,0.3l-3.2,7c-0.1,0.1,0,0.3,0,0.5C-145.1,228.8-145,228.9-144.8,228.9"/>
		</g>
		<g>
			<defs>
				<rect id="SVGID_9_" x="-159" y="209" width="32" height="32"/>
			</defs>
			<clipPath id="SVGID_10_">
				<use xlink:href="#SVGID_9_"  style="overflow:visible;"/>
			</clipPath>
			<path class="st6" d="M-154.8,231.7h1.4c0.6,0,1.3,0.4,1.3,1.2c0,0.9-0.6,1.3-1.3,1.3h-1.4C-154.8,234.1-154.8,231.7-154.8,231.7z
				 M-155.7,238.2h0.4c0.3,0,0.5-0.2,0.5-0.5v-2.1h1.4c1.4,0,2.6-1.2,2.6-2.7c0-1.4-1.2-2.6-2.6-2.6h-2.3c-0.3,0-0.5,0.2-0.5,0.5
				v6.9C-156.2,237.9-155.9,238.2-155.7,238.2"/>
		</g>
		<g>
			<defs>
				<rect id="SVGID_11_" x="-159" y="209" width="32" height="32"/>
			</defs>
			<clipPath id="SVGID_12_">
				<use xlink:href="#SVGID_11_"  style="overflow:visible;"/>
			</clipPath>
			<path class="st7" d="M-149.2,235.1l1.1-2.5c0.2,0.4,0.4,0.8,0.5,1.2c0.2,0.4,0.4,0.9,0.6,1.3
				C-146.9,235.1-149.2,235.1-149.2,235.1z M-147.6,230.5L-147.6,230.5c-0.1-0.2-0.3-0.3-0.5-0.3h-0.1c-0.2,0-0.4,0.1-0.5,0.3
				l-3.2,7c-0.1,0.1,0,0.3,0,0.5s0.2,0.2,0.4,0.2h0.4c0.2,0,0.4-0.1,0.5-0.3l0.7-1.6h3.3l0.7,1.5c0,0.1,0.2,0.3,0.5,0.3h0.4
				c0.2,0,0.3-0.1,0.4-0.2s0.1-0.3,0-0.5L-147.6,230.5z"/>
		</g>
		<g>
			<defs>
				<rect id="SVGID_13_" x="-159" y="209" width="32" height="32"/>
			</defs>
			<clipPath id="SVGID_14_">
				<use xlink:href="#SVGID_13_"  style="overflow:visible;"/>
			</clipPath>
			<path class="st8" d="M-140.8,231.5c0.8,0,1.4,0.4,1.8,0.7c0.1,0.1,0.2,0.2,0.4,0.2c0.1,0,0.2,0,0.3-0.2l0.3-0.3
				c0.1-0.1,0.1-0.2,0.1-0.4s0-0.3-0.1-0.4l0,0c-0.8-0.7-1.7-1.1-2.7-1.1c-2.2,0-4,1.8-4,4c0,2.2,1.8,4,4,4c1,0,1.9-0.4,2.7-1.1l0,0
				c0.1-0.1,0.1-0.3,0.1-0.4c0-0.1,0-0.2-0.1-0.3l-0.2-0.2c-0.1-0.1-0.3-0.1-0.4-0.1c-0.1,0-0.2,0-0.3,0.1c-0.5,0.5-1,0.7-1.8,0.7
				c-1.4,0-2.6-1.2-2.6-2.7C-143.4,232.7-142.3,231.5-140.8,231.5"/>
		</g>
		<g>
			<defs>
				<rect id="SVGID_15_" x="-159" y="209" width="32" height="32"/>
			</defs>
			<clipPath id="SVGID_16_">
				<use xlink:href="#SVGID_15_"  style="overflow:visible;"/>
			</clipPath>
			<path class="st9" d="M-136.9,238.2h0.3c0.3,0,0.5-0.2,0.5-0.5v-2.5l2.8,2.9c0.1,0.1,0.3,0.2,0.4,0.2h0.5c0.2,0,0.4-0.1,0.5-0.3
				c0.1-0.2,0-0.4-0.1-0.5l-3.2-3.2l3.1-2.9c0.2-0.1,0.2-0.4,0.1-0.5c-0.1-0.2-0.3-0.3-0.5-0.3h-0.5c-0.1,0-0.3,0.1-0.4,0.2
				l-2.7,2.7v-2.3c0-0.3-0.2-0.5-0.5-0.5h-0.3c-0.3,0-0.5,0.2-0.5,0.5v6.8C-137.4,237.9-137.2,238.2-136.9,238.2"/>
		</g>
	</g>
</g>
</svg>
