<?xml version="1.0" encoding="utf-8"?>
<!-- Generator: Adobe Illustrator 19.0.1, SVG Export Plug-In . SVG Version: 6.00 Build 0)  -->
<!DOCTYPE svg PUBLIC "-//W3C//DTD SVG 1.1//EN" "http://www.w3.org/Graphics/SVG/1.1/DTD/svg11.dtd">
<svg version="1.1" id="Ebene_1" xmlns="http://www.w3.org/2000/svg" xmlns:xlink="http://www.w3.org/1999/xlink" x="0px" y="0px"
	 viewBox="0 0 52 52" enable-background="new 0 0 52 52" xml:space="preserve">
<path fill="#2F394B" d="M0,0v52h52V0H0z M39.8,18.9c0,0.3,0,0.6,0,0.9c0,9.4-7.2,20.2-20.2,20.2c-4,0-7.8-1.2-10.9-3.2
	C9.2,37,9.8,37,10.4,37c3.3,0,6.4-1.1,8.8-3c-3.1-0.1-5.7-2.1-6.6-4.9c0.4,0.1,0.9,0.1,1.3,0.1c0.6,0,1.3-0.1,1.9-0.3
	c-3.3-0.7-5.7-3.5-5.7-7v-0.1c1,0.5,2.1,0.9,3.2,0.9c-1.9-1.3-3.2-3.5-3.2-5.9c0-1.3,0.4-2.5,1-3.6c3.5,4.3,8.7,7.1,14.7,7.4
	c-0.1-0.5-0.2-1.1-0.2-1.6c0-3.9,3.2-7.1,7.1-7.1c2,0,3.9,0.9,5.2,2.2c1.6-0.3,3.1-0.9,4.5-1.7c-0.5,1.7-1.7,3.1-3.1,3.9
	c1.4-0.2,2.8-0.6,4.1-1.1C42.4,16.7,41.2,17.9,39.8,18.9z"/>
</svg>
